<svg viewBox="0 0 1024 1024" fill="currentColor" width="32" height="32" xmlns="http://www.w3.org/2000/svg" xmlns:xlink="http://www.w3.org/1999/xlink">
    <path transform="matrix(1, 0, 0, -1, 0, 960)" d="M938.667 501.333c-18.347 1.28-32-14.08-32.427-31.573-0.853-93.44-5.12-143.787-28.587-177.493-10.667-15.36-23.893-28.587-39.253-39.253-41.387-29.013-107.947-29.013-241.067-29.013H426.666c-133.12 0-199.68 0-241.067 29.013-15.36 10.667-28.587 23.893-39.253 39.253-29.013 41.387-29.013 107.947-29.013 241.067s0 199.68 29.013 241.067c10.667 15.36 23.893 28.587 39.253 39.253 41.387 29.013 107.947 29.013 241.067 29.013h42.667c17.493 0 32 14.507 32 32s-14.507 32-32 32h-42.667c-146.347 0-220.16 0-277.76-40.533-21.333-14.933-40.107-33.707-55.04-55.04-40.533-57.6-40.533-131.413-40.533-277.76s0-220.16 40.533-277.76c14.933-21.333 33.707-40.107 55.04-55.04 58.027-40.533 131.413-40.533 277.76-40.533h53.333V53.334H341.332c-17.493 0-32-14.507-32-32s14.507-32 32-32h341.333c17.493 0 32 14.507 32 32s-14.507 32-32 32H543.998v106.667h53.333c146.347 0 220.16 0 277.76 40.533 21.333 14.933 40.107 33.707 55.04 55.04 33.28 47.36 39.253 106.667 40.533 213.333 0 17.92-14.08 32.427-31.997 32.426zM650.667 544h201.387c65.28 0 118.613 54.613 118.613 121.6 0 55.893-37.12 103.253-87.467 117.333-3.84 29.44-16.64 57.173-37.12 79.36-26.453 28.587-61.44 44.373-99.413 44.373-62.72 0-117.333-44.373-133.12-104.96-53.333-16.213-90.88-66.56-90.88-125.867 0-72.96 57.6-131.84 128-131.839zM644.693 742.827c15.36 1.707 27.307 13.653 28.587 29.44 3.413 39.68 35.413 70.827 73.387 70.827 19.627 0 38.4-8.533 52.053-23.467 15.36-16.64 23.04-38.827 20.907-61.013-0.853-8.96 2.133-17.92 8.107-24.32s14.507-10.24 23.467-10.24c30.293 0 55.04-26.027 55.04-57.6s-24.32-57.6-54.613-57.6H650.241c-35.413 0-64 30.293-64 67.413 0.427 34.56 25.173 63.147 58.452 66.56zM469.333 352c-17.493 0-32-14.507-32-32s14.507-32 32-32h85.333c17.493 0 32 14.507 32 32s-14.507 32-32 32z" />
</svg>